<svg width="128" height="128" viewBox="0 0 128 128" xmlns="http://www.w3.org/2000/svg">
  <defs>
    <linearGradient id="brainGradient" x1="0%" y1="0%" x2="100%" y2="100%">
      <stop offset="0%" style="stop-color:#4a9eff;stop-opacity:1" />
      <stop offset="100%" style="stop-color:#357abd;stop-opacity:1" />
    </linearGradient>
    <linearGradient id="pulseGradient" x1="0%" y1="0%" x2="100%" y2="100%">
      <stop offset="0%" style="stop-color:#4CAF50;stop-opacity:1" />
      <stop offset="50%" style="stop-color:#FF9800;stop-opacity:1" />
      <stop offset="100%" style="stop-color:#F44336;stop-opacity:1" />
    </linearGradient>
  </defs>
  
  <!-- Background circle -->
  <circle cx="64" cy="64" r="60" fill="url(#brainGradient)" stroke="#ffffff" stroke-width="4"/>
  
  <!-- Brain shape -->
  <path d="M 40 50 Q 30 40 40 30 Q 50 20 64 25 Q 78 20 88 30 Q 98 40 88 50 Q 95 60 90 70 Q 85 80 75 85 Q 65 90 55 85 Q 45 80 40 70 Q 35 60 40 50 Z" fill="#ffffff" opacity="0.9"/>
  
  <!-- Brain details -->
  <path d="M 50 35 Q 45 30 50 25 Q 55 20 60 25 Q 65 20 70 25 Q 75 30 70 35 Q 65 40 60 35 Q 55 40 50 35 Z" fill="url(#brainGradient)" opacity="0.7"/>
  
  <!-- Thought bubbles -->
  <circle cx="25" cy="35" r="8" fill="url(#pulseGradient)" opacity="0.8"/>
  <circle cx="20" cy="25" r="5" fill="url(#pulseGradient)" opacity="0.6"/>
  <circle cx="15" cy="20" r="3" fill="url(#pulseGradient)" opacity="0.4"/>
  
  <circle cx="103" cy="45" r="6" fill="url(#pulseGradient)" opacity="0.8"/>
  <circle cx="108" cy="35" r="4" fill="url(#pulseGradient)" opacity="0.6"/>
  <circle cx="113" cy="30" r="2" fill="url(#pulseGradient)" opacity="0.4"/>
  
  <!-- Connection lines -->
  <path d="M 25 35 Q 35 40 40 45" stroke="url(#pulseGradient)" stroke-width="2" fill="none" opacity="0.6"/>
  <path d="M 103 45 Q 93 50 88 55" stroke="url(#pulseGradient)" stroke-width="2" fill="none" opacity="0.6"/>
</svg>
